<svg xmlns="http://www.w3.org/2000/svg" width="3360" height="520" viewBox="0 0 3360 520">
<rect width="100%" height="100%" fill="white"/>
<text x="1680.0" y="28" text-anchor="middle" font-family="sans-serif" font-size="18">Refresh and dirty work: sequential paging</text>
<text x="18" y="212.5" transform="rotate(-90 18 212.5)" text-anchor="middle" font-family="sans-serif" font-size="12">Percent / screen-equivalent percent</text>
<line x1="70" y1="55" x2="70" y2="370" stroke="black"/>
<line x1="70" y1="370" x2="3340" y2="370" stroke="black"/>
<rect x="80.22" y="359.14" width="47.69" height="10.86" fill="#3978b5"/>
<text x="104.06" y="355.14" text-anchor="middle" font-family="sans-serif" font-size="9">100.00</text>
<text x="104.06" y="382" transform="rotate(55 104.06 382)" text-anchor="start" font-family="sans-serif" font-size="9">A_stock unique</text>
<rect x="148.34" y="359.14" width="47.69" height="10.86" fill="#3978b5"/>
<text x="172.19" y="355.14" text-anchor="middle" font-family="sans-serif" font-size="9">100.00</text>
<text x="172.19" y="382" transform="rotate(55 172.19 382)" text-anchor="start" font-family="sans-serif" font-size="9">A_stock cumulative</text>
<rect x="216.47" y="359.14" width="47.69" height="10.86" fill="#3978b5"/>
<text x="240.31" y="355.14" text-anchor="middle" font-family="sans-serif" font-size="9">100.00</text>
<text x="240.31" y="382" transform="rotate(55 240.31 382)" text-anchor="start" font-family="sans-serif" font-size="9">A_stock unique</text>
<rect x="284.59" y="207.07" width="47.69" height="162.93" fill="#3978b5"/>
<text x="308.44" y="203.07" text-anchor="middle" font-family="sans-serif" font-size="9">1500.00</text>
<text x="308.44" y="382" transform="rotate(55 308.44 382)" text-anchor="start" font-family="sans-serif" font-size="9">A_stock cumulative</text>
<rect x="352.72" y="359.14" width="47.69" height="10.86" fill="#3978b5"/>
<text x="376.56" y="355.14" text-anchor="middle" font-family="sans-serif" font-size="9">100.00</text>
<text x="376.56" y="382" transform="rotate(55 376.56 382)" text-anchor="start" font-family="sans-serif" font-size="9">B_bookshelf unique</text>
<rect x="420.84" y="359.14" width="47.69" height="10.86" fill="#3978b5"/>
<text x="444.69" y="355.14" text-anchor="middle" font-family="sans-serif" font-size="9">100.00</text>
<text x="444.69" y="382" transform="rotate(55 444.69 382)" text-anchor="start" font-family="sans-serif" font-size="9">B_bookshelf cumulative</text>
<rect x="488.97" y="359.14" width="47.69" height="10.86" fill="#3978b5"/>
<text x="512.81" y="355.14" text-anchor="middle" font-family="sans-serif" font-size="9">100.00</text>
<text x="512.81" y="382" transform="rotate(55 512.81 382)" text-anchor="start" font-family="sans-serif" font-size="9">B_bookshelf unique</text>
<rect x="557.09" y="55.00" width="47.69" height="315.00" fill="#3978b5"/>
<text x="580.94" y="51.00" text-anchor="middle" font-family="sans-serif" font-size="9">2900.00</text>
<text x="580.94" y="382" transform="rotate(55 580.94 382)" text-anchor="start" font-family="sans-serif" font-size="9">B_bookshelf cumulative</text>
<rect x="625.22" y="359.14" width="47.69" height="10.86" fill="#3978b5"/>
<text x="649.06" y="355.14" text-anchor="middle" font-family="sans-serif" font-size="9">100.00</text>
<text x="649.06" y="382" transform="rotate(55 649.06 382)" text-anchor="start" font-family="sans-serif" font-size="9">C_simpleui unique</text>
<rect x="693.34" y="358.07" width="47.69" height="11.93" fill="#3978b5"/>
<text x="717.19" y="354.07" text-anchor="middle" font-family="sans-serif" font-size="9">109.83</text>
<text x="717.19" y="382" transform="rotate(55 717.19 382)" text-anchor="start" font-family="sans-serif" font-size="9">C_simpleui cumulative</text>
<rect x="761.47" y="359.14" width="47.69" height="10.86" fill="#3978b5"/>
<text x="785.31" y="355.14" text-anchor="middle" font-family="sans-serif" font-size="9">100.00</text>
<text x="785.31" y="382" transform="rotate(55 785.31 382)" text-anchor="start" font-family="sans-serif" font-size="9">C_simpleui unique</text>
<rect x="829.59" y="358.07" width="47.69" height="11.93" fill="#3978b5"/>
<text x="853.44" y="354.07" text-anchor="middle" font-family="sans-serif" font-size="9">109.83</text>
<text x="853.44" y="382" transform="rotate(55 853.44 382)" text-anchor="start" font-family="sans-serif" font-size="9">C_simpleui cumulative</text>
<rect x="897.72" y="359.14" width="47.69" height="10.86" fill="#3978b5"/>
<text x="921.56" y="355.14" text-anchor="middle" font-family="sans-serif" font-size="9">100.00</text>
<text x="921.56" y="382" transform="rotate(55 921.56 382)" text-anchor="start" font-family="sans-serif" font-size="9">D_zenos unique</text>
<rect x="965.84" y="359.14" width="47.69" height="10.86" fill="#3978b5"/>
<text x="989.69" y="355.14" text-anchor="middle" font-family="sans-serif" font-size="9">100.00</text>
<text x="989.69" y="382" transform="rotate(55 989.69 382)" text-anchor="start" font-family="sans-serif" font-size="9">D_zenos cumulative</text>
<rect x="1033.97" y="359.14" width="47.69" height="10.86" fill="#3978b5"/>
<text x="1057.81" y="355.14" text-anchor="middle" font-family="sans-serif" font-size="9">100.00</text>
<text x="1057.81" y="382" transform="rotate(55 1057.81 382)" text-anchor="start" font-family="sans-serif" font-size="9">D_zenos unique</text>
<rect x="1102.09" y="359.14" width="47.69" height="10.86" fill="#3978b5"/>
<text x="1125.94" y="355.14" text-anchor="middle" font-family="sans-serif" font-size="9">100.00</text>
<text x="1125.94" y="382" transform="rotate(55 1125.94 382)" text-anchor="start" font-family="sans-serif" font-size="9">D_zenos cumulative</text>
<rect x="1170.22" y="359.14" width="47.69" height="10.86" fill="#3978b5"/>
<text x="1194.06" y="355.14" text-anchor="middle" font-family="sans-serif" font-size="9">100.00</text>
<text x="1194.06" y="382" transform="rotate(55 1194.06 382)" text-anchor="start" font-family="sans-serif" font-size="9">E_project_title unique</text>
<rect x="1238.34" y="359.14" width="47.69" height="10.86" fill="#3978b5"/>
<text x="1262.19" y="355.14" text-anchor="middle" font-family="sans-serif" font-size="9">100.00</text>
<text x="1262.19" y="382" transform="rotate(55 1262.19 382)" text-anchor="start" font-family="sans-serif" font-size="9">E_project_title cumulative</text>
<rect x="1306.47" y="359.14" width="47.69" height="10.86" fill="#3978b5"/>
<text x="1330.31" y="355.14" text-anchor="middle" font-family="sans-serif" font-size="9">100.00</text>
<text x="1330.31" y="382" transform="rotate(55 1330.31 382)" text-anchor="start" font-family="sans-serif" font-size="9">E_project_title unique</text>
<rect x="1374.59" y="359.14" width="47.69" height="10.86" fill="#3978b5"/>
<text x="1398.44" y="355.14" text-anchor="middle" font-family="sans-serif" font-size="9">100.00</text>
<text x="1398.44" y="382" transform="rotate(55 1398.44 382)" text-anchor="start" font-family="sans-serif" font-size="9">E_project_title cumulative</text>
<rect x="1442.72" y="359.14" width="47.69" height="10.86" fill="#3978b5"/>
<text x="1466.56" y="355.14" text-anchor="middle" font-family="sans-serif" font-size="9">100.00</text>
<text x="1466.56" y="382" transform="rotate(55 1466.56 382)" text-anchor="start" font-family="sans-serif" font-size="9">F_vos unique</text>
<rect x="1510.84" y="357.02" width="47.69" height="12.98" fill="#3978b5"/>
<text x="1534.69" y="353.02" text-anchor="middle" font-family="sans-serif" font-size="9">119.54</text>
<text x="1534.69" y="382" transform="rotate(55 1534.69 382)" text-anchor="start" font-family="sans-serif" font-size="9">F_vos cumulative</text>
<rect x="1578.97" y="359.14" width="47.69" height="10.86" fill="#3978b5"/>
<text x="1602.81" y="355.14" text-anchor="middle" font-family="sans-serif" font-size="9">100.00</text>
<text x="1602.81" y="382" transform="rotate(55 1602.81 382)" text-anchor="start" font-family="sans-serif" font-size="9">F_vos unique</text>
<rect x="1647.09" y="237.53" width="47.69" height="132.47" fill="#3978b5"/>
<text x="1670.94" y="233.53" text-anchor="middle" font-family="sans-serif" font-size="9">1219.54</text>
<text x="1670.94" y="382" transform="rotate(55 1670.94 382)" text-anchor="start" font-family="sans-serif" font-size="9">F_vos cumulative</text>
<rect x="1715.22" y="359.14" width="47.69" height="10.86" fill="#3978b5"/>
<text x="1739.06" y="355.14" text-anchor="middle" font-family="sans-serif" font-size="9">100.00</text>
<text x="1739.06" y="382" transform="rotate(55 1739.06 382)" text-anchor="start" font-family="sans-serif" font-size="9">G_simpleui_bookshelf unique</text>
<rect x="1783.34" y="358.07" width="47.69" height="11.93" fill="#3978b5"/>
<text x="1807.19" y="354.07" text-anchor="middle" font-family="sans-serif" font-size="9">109.83</text>
<text x="1807.19" y="382" transform="rotate(55 1807.19 382)" text-anchor="start" font-family="sans-serif" font-size="9">G_simpleui_bookshelf cumulative</text>
<rect x="1851.47" y="359.14" width="47.69" height="10.86" fill="#3978b5"/>
<text x="1875.31" y="355.14" text-anchor="middle" font-family="sans-serif" font-size="9">100.00</text>
<text x="1875.31" y="382" transform="rotate(55 1875.31 382)" text-anchor="start" font-family="sans-serif" font-size="9">G_simpleui_bookshelf unique</text>
<rect x="1919.59" y="358.07" width="47.69" height="11.93" fill="#3978b5"/>
<text x="1943.44" y="354.07" text-anchor="middle" font-family="sans-serif" font-size="9">109.83</text>
<text x="1943.44" y="382" transform="rotate(55 1943.44 382)" text-anchor="start" font-family="sans-serif" font-size="9">G_simpleui_bookshelf cumulative</text>
<rect x="1987.72" y="359.14" width="47.69" height="10.86" fill="#3978b5"/>
<text x="2011.56" y="355.14" text-anchor="middle" font-family="sans-serif" font-size="9">100.00</text>
<text x="2011.56" y="382" transform="rotate(55 2011.56 382)" text-anchor="start" font-family="sans-serif" font-size="9">H_zenos_bookshelf unique</text>
<rect x="2055.84" y="359.14" width="47.69" height="10.86" fill="#3978b5"/>
<text x="2079.69" y="355.14" text-anchor="middle" font-family="sans-serif" font-size="9">100.00</text>
<text x="2079.69" y="382" transform="rotate(55 2079.69 382)" text-anchor="start" font-family="sans-serif" font-size="9">H_zenos_bookshelf cumulative</text>
<rect x="2123.97" y="359.14" width="47.69" height="10.86" fill="#3978b5"/>
<text x="2147.81" y="355.14" text-anchor="middle" font-family="sans-serif" font-size="9">100.00</text>
<text x="2147.81" y="382" transform="rotate(55 2147.81 382)" text-anchor="start" font-family="sans-serif" font-size="9">H_zenos_bookshelf unique</text>
<rect x="2192.09" y="359.14" width="47.69" height="10.86" fill="#3978b5"/>
<text x="2215.94" y="355.14" text-anchor="middle" font-family="sans-serif" font-size="9">100.00</text>
<text x="2215.94" y="382" transform="rotate(55 2215.94 382)" text-anchor="start" font-family="sans-serif" font-size="9">H_zenos_bookshelf cumulative</text>
<rect x="2260.22" y="359.14" width="47.69" height="10.86" fill="#3978b5"/>
<text x="2284.06" y="355.14" text-anchor="middle" font-family="sans-serif" font-size="9">100.00</text>
<text x="2284.06" y="382" transform="rotate(55 2284.06 382)" text-anchor="start" font-family="sans-serif" font-size="9">I_vos_bookshelf unique</text>
<rect x="2328.34" y="357.02" width="47.69" height="12.98" fill="#3978b5"/>
<text x="2352.19" y="353.02" text-anchor="middle" font-family="sans-serif" font-size="9">119.54</text>
<text x="2352.19" y="382" transform="rotate(55 2352.19 382)" text-anchor="start" font-family="sans-serif" font-size="9">I_vos_bookshelf cumulative</text>
<rect x="2396.47" y="359.14" width="47.69" height="10.86" fill="#3978b5"/>
<text x="2420.31" y="355.14" text-anchor="middle" font-family="sans-serif" font-size="9">100.00</text>
<text x="2420.31" y="382" transform="rotate(55 2420.31 382)" text-anchor="start" font-family="sans-serif" font-size="9">I_vos_bookshelf unique</text>
<rect x="2464.59" y="280.98" width="47.69" height="89.02" fill="#3978b5"/>
<text x="2488.44" y="276.98" text-anchor="middle" font-family="sans-serif" font-size="9">819.54</text>
<text x="2488.44" y="382" transform="rotate(55 2488.44 382)" text-anchor="start" font-family="sans-serif" font-size="9">I_vos_bookshelf cumulative</text>
<rect x="2532.72" y="359.14" width="47.69" height="10.86" fill="#3978b5"/>
<text x="2556.56" y="355.14" text-anchor="middle" font-family="sans-serif" font-size="9">100.00</text>
<text x="2556.56" y="382" transform="rotate(55 2556.56 382)" text-anchor="start" font-family="sans-serif" font-size="9">J_simpleui_vos unique</text>
<rect x="2600.84" y="355.95" width="47.69" height="14.05" fill="#3978b5"/>
<text x="2624.69" y="351.95" text-anchor="middle" font-family="sans-serif" font-size="9">129.31</text>
<text x="2624.69" y="382" transform="rotate(55 2624.69 382)" text-anchor="start" font-family="sans-serif" font-size="9">J_simpleui_vos cumulative</text>
<rect x="2668.97" y="359.14" width="47.69" height="10.86" fill="#3978b5"/>
<text x="2692.81" y="355.14" text-anchor="middle" font-family="sans-serif" font-size="9">100.00</text>
<text x="2692.81" y="382" transform="rotate(55 2692.81 382)" text-anchor="start" font-family="sans-serif" font-size="9">J_simpleui_vos unique</text>
<rect x="2737.09" y="355.95" width="47.69" height="14.05" fill="#3978b5"/>
<text x="2760.94" y="351.95" text-anchor="middle" font-family="sans-serif" font-size="9">129.31</text>
<text x="2760.94" y="382" transform="rotate(55 2760.94 382)" text-anchor="start" font-family="sans-serif" font-size="9">J_simpleui_vos cumulative</text>
<rect x="2805.22" y="359.14" width="47.69" height="10.86" fill="#3978b5"/>
<text x="2829.06" y="355.14" text-anchor="middle" font-family="sans-serif" font-size="9">100.00</text>
<text x="2829.06" y="382" transform="rotate(55 2829.06 382)" text-anchor="start" font-family="sans-serif" font-size="9">K_simpleui_vos_bookshelf unique</text>
<rect x="2873.34" y="355.95" width="47.69" height="14.05" fill="#3978b5"/>
<text x="2897.19" y="351.95" text-anchor="middle" font-family="sans-serif" font-size="9">129.31</text>
<text x="2897.19" y="382" transform="rotate(55 2897.19 382)" text-anchor="start" font-family="sans-serif" font-size="9">K_simpleui_vos_bookshelf cumulative</text>
<rect x="2941.47" y="359.14" width="47.69" height="10.86" fill="#3978b5"/>
<text x="2965.31" y="355.14" text-anchor="middle" font-family="sans-serif" font-size="9">100.00</text>
<text x="2965.31" y="382" transform="rotate(55 2965.31 382)" text-anchor="start" font-family="sans-serif" font-size="9">K_simpleui_vos_bookshelf unique</text>
<rect x="3009.59" y="355.95" width="47.69" height="14.05" fill="#3978b5"/>
<text x="3033.44" y="351.95" text-anchor="middle" font-family="sans-serif" font-size="9">129.31</text>
<text x="3033.44" y="382" transform="rotate(55 3033.44 382)" text-anchor="start" font-family="sans-serif" font-size="9">K_simpleui_vos_bookshelf cumulative</text>
<rect x="3077.72" y="359.14" width="47.69" height="10.86" fill="#3978b5"/>
<text x="3101.56" y="355.14" text-anchor="middle" font-family="sans-serif" font-size="9">100.00</text>
<text x="3101.56" y="382" transform="rotate(55 3101.56 382)" text-anchor="start" font-family="sans-serif" font-size="9">L_project_title_vos unique</text>
<rect x="3145.84" y="357.02" width="47.69" height="12.98" fill="#3978b5"/>
<text x="3169.69" y="353.02" text-anchor="middle" font-family="sans-serif" font-size="9">119.54</text>
<text x="3169.69" y="382" transform="rotate(55 3169.69 382)" text-anchor="start" font-family="sans-serif" font-size="9">L_project_title_vos cumulative</text>
<rect x="3213.97" y="359.14" width="47.69" height="10.86" fill="#3978b5"/>
<text x="3237.81" y="355.14" text-anchor="middle" font-family="sans-serif" font-size="9">100.00</text>
<text x="3237.81" y="382" transform="rotate(55 3237.81 382)" text-anchor="start" font-family="sans-serif" font-size="9">L_project_title_vos unique</text>
<rect x="3282.09" y="357.02" width="47.69" height="12.98" fill="#3978b5"/>
<text x="3305.94" y="353.02" text-anchor="middle" font-family="sans-serif" font-size="9">119.54</text>
<text x="3305.94" y="382" transform="rotate(55 3305.94 382)" text-anchor="start" font-family="sans-serif" font-size="9">L_project_title_vos cumulative</text>
</svg>